# xmcd CD database file
#
# Track frame offsets:
#	150
#	18522
#	42753
#	59526
#	81397
#	102929
#	123010
#	138392
#	153436
#	184965
#
# Disc length: 3148 seconds
#
# Revision: 5
# Processed by: cddbd v1.5.2PL0 Copyright (c) Steve Scherf et al.
# Submitted via: CDex 1.51
#
DISCID=820c4a0a
DTITLE=Aynsley Lister - Everything I Need
DYEAR=2000
DGENRE=Blues Rock
TTITLE0=Everything I Need
TTITLE1=Angel O' Mine
TTITLE2=Soundman
TTITLE3=As The Crow Flies
TTITLE4=Without U
TTITLE5=In The Beginning
TTITLE6=Quiet Boy!
TTITLE7=I Believe
TTITLE8=Need Her So Bad
TTITLE9=Little Wing
EXTD=YEAR: 2000
EXTT0=
EXTT1=
EXTT2=
EXTT3=
EXTT4=
EXTT5=
EXTT6=
EXTT7=
EXTT8=
EXTT9=
PLAYORDER=
